<svg width="126" height="26" viewBox="0 0 126 26" fill="none" xmlns="http://www.w3.org/2000/svg">
<g clip-path="url(#clip0_16460_18024)">
<path fill-rule="evenodd" clip-rule="evenodd" d="M91.2369 13.6218H78.6991C76.8936 13.6218 76.0955 12.5854 76.0955 11.1482C76.0955 10.1118 76.2797 9.50875 77.9733 8.11125L75.6008 4.36292C71.9247 6.91958 71.95 8.9418 71.95 11.1482C71.95 14.7124 74.1022 18.2729 78.5944 18.2729H95.8916V5.66978L91.2369 6.7708V13.6218Z" fill="#5660F2"/>
<path fill-rule="evenodd" clip-rule="evenodd" d="M49.3491 5.67206L44.6944 6.76947V13.6237H30.8421V18.8526C30.8421 20.6582 29.8058 21.4562 28.3685 21.4562C27.3321 21.4562 26.7291 21.2717 25.3316 19.5784L21.5833 21.9506C24.1399 25.6271 26.1621 25.6014 28.3685 25.6014C31.9327 25.6014 35.4933 23.4492 35.4933 18.957V18.2745H49.3491V5.67206Z" fill="#5660F2"/>
<path fill-rule="evenodd" clip-rule="evenodd" d="M65.3644 12.681C65.2813 12.7821 65.1911 12.8691 65.0936 12.9446C64.5411 13.3638 63.9091 13.6271 60.4894 13.6271C57.0697 13.6271 56.8241 13.3638 56.2716 12.9446C55.8238 12.6015 55.4302 11.9443 55.4302 11.1029C55.4302 10.2579 55.8238 9.60105 56.2716 9.26124C56.8241 8.83874 57.0697 8.57513 60.4894 8.57513C63.9091 8.57513 64.5411 8.83874 65.0936 9.26124C65.1875 9.33346 65.2777 9.42049 65.3644 9.51763C65.6786 9.88632 65.9097 10.4349 65.9097 11.1029C65.9097 11.7637 65.6822 12.3126 65.3644 12.681M65.3644 4.37938C65.0286 4.27791 64.6855 4.20568 64.3352 4.14791C63.1291 3.95291 61.8291 3.97096 60.4894 3.97096C59.7852 3.97096 59.1172 3.96735 58.478 3.98938C56.5569 4.06124 54.9102 4.38624 53.4297 5.86679C52.0611 7.23179 51.3244 8.81346 51.3244 11.1029C51.3244 13.3927 52.0611 14.9708 53.4297 16.339C55.405 18.311 57.6727 18.2349 60.4894 18.2349C62.2227 18.2349 63.8839 18.2637 65.3644 17.8268V18.8527C65.3644 20.6583 64.328 21.4563 62.8908 21.4563C61.8544 21.4563 59.2223 21.885 57.8248 20.1917L54.0764 22.5642C56.6331 26.2403 60.6844 25.6015 62.8908 25.6015C66.455 25.6015 70.0155 23.4493 70.0155 18.9571V11.1029C70.0155 8.81346 69.2789 7.23179 67.9102 5.86679C67.1519 5.10846 66.2925 4.65021 65.3644 4.37938" fill="#5660F2"/>
<path fill-rule="evenodd" clip-rule="evenodd" d="M26.1083 5.66996L21.4536 6.77099V13.622H6.74917C4.94361 13.622 4.14556 12.5852 4.14556 11.1484C4.14556 10.112 4.32973 9.50893 6.02334 8.11143L3.65084 4.3631C-0.0252756 6.91976 2.34981e-06 8.94199 2.34981e-06 11.1484C2.34981e-06 14.7122 2.15223 18.2727 6.64445 18.2727H26.1083V5.66996Z" fill="#5660F2"/>
<path fill-rule="evenodd" clip-rule="evenodd" d="M80.7111 24.7062H86.5344V20.4223H80.7111V24.7062Z" fill="#5660F2"/>
<path fill-rule="evenodd" clip-rule="evenodd" d="M28.1337 11.44H39.3725V7.15619H28.1337V11.44Z" fill="#5660F2"/>
<path fill-rule="evenodd" clip-rule="evenodd" d="M40.8188 24.7062H52.0577V20.4223H40.8188V24.7062Z" fill="#5660F2"/>
<path fill-rule="evenodd" clip-rule="evenodd" d="M8.90125 11.44H14.7245V7.15619H8.90125V11.44Z" fill="#5660F2"/>
<path fill-rule="evenodd" clip-rule="evenodd" d="M28.1337 5.72832H33.9569V1.44446H28.1337V5.72832Z" fill="#5660F2"/>
<path fill-rule="evenodd" clip-rule="evenodd" d="M106.588 24.7062H112.411V20.4223H106.588V24.7062Z" fill="#5660F2"/>
<path fill-rule="evenodd" clip-rule="evenodd" d="M125.086 13.0498C122.671 7.79315 114.023 1.91101 104.782 6.96765L106.816 11.1013C112.353 7.64365 117.945 11.0092 119.951 13.6218H106.158H105.081C103.276 13.6218 102.478 12.5855 102.478 11.1518V1.44446L97.8265 2.8889V11.1518C97.8265 14.7124 100.484 18.273 104.977 18.273H106.158H121.024H124.98C124.98 18.273 125.553 17.4045 125.551 15.6181C125.55 14.7774 125.433 13.806 125.086 13.0498" fill="#5660F2"/>
</g>
<defs>
<clipPath id="clip0_16460_18024">
<rect width="125.667" height="26" fill="white"/>
</clipPath>
</defs>
</svg>
